<svg width="314" height="181" viewBox="0 0 314 181" fill="none" xmlns="http://www.w3.org/2000/svg">
<path fill-rule="evenodd" clip-rule="evenodd" d="M151.736 1.23544C194.716 0.723443 221.263 0.512443 262.286 0.914443C270.505 0.995443 278.909 1.19444 286.606 4.07844C296.363 7.73244 304.379 15.7754 308.001 25.5434C310.417 32.0594 310.921 39.1044 311.371 46.0394C313.354 76.6014 311.04 104.517 311.859 135.131C312.107 144.397 312.168 154.212 307.474 162.205C302.702 170.332 292.102 177.77 282.68 178.033C261.899 178.613 234.403 177.906 213.919 178.886C154.837 181.715 107.018 179.818 48.6943 179.033C40.2713 178.92 31.7273 178.709 23.6553 176.297C15.5823 173.887 7.90726 168.982 3.95626 161.542C0.396265 154.839 0.199265 146.917 0.198265 139.328C0.192265 104.833 1.38426 79.2684 0.978265 43.1364C0.874265 33.9034 3.80826 24.4814 9.20426 16.9884C19.8443 2.21544 47.0383 0.473443 65.2403 0.0914434C92.2873 -0.475557 124.689 1.80244 151.736 1.23544Z" fill="#00AFDA"/>
<path fill-rule="evenodd" clip-rule="evenodd" d="M209.505 128.246C218.231 116.97 231.402 109.812 244.164 104.016C257.399 98.0042 271.639 93.8152 286.167 92.6782C294.329 92.0382 302.56 92.3542 310.625 93.7802C312.513 94.1132 313.323 91.2232 311.422 90.8872C296.687 88.2832 281.594 89.2022 267.103 92.8002C252.545 96.4142 238.448 102.544 225.677 110.392C218.782 114.63 212.36 119.693 207.384 126.124C206.884 126.769 206.767 127.615 207.384 128.246C207.895 128.768 209.01 128.886 209.505 128.246Z" fill="#008CAE"/>
<path fill-rule="evenodd" clip-rule="evenodd" d="M215.208 165.004C210.446 165.629 205.783 163.883 202.648 160.234C201.966 159.44 200.81 159.815 200.292 160.538C196.714 165.539 189.136 165.265 185.818 160.15C185.273 159.31 184.202 159.181 183.462 159.846C179.419 163.48 173.519 168.05 167.86 165.004C166.16 164.089 164.643 166.678 166.346 167.594C172.81 171.073 179.298 167.307 184.31 163.073C186.483 165.561 189.589 167.143 192.95 167.219C196.271 167.295 199.374 165.848 201.639 163.514C205.214 166.917 210.288 168.65 215.208 168.004C216.018 167.898 216.699 167.39 216.708 166.504C216.715 165.775 216.011 164.899 215.208 165.004Z" fill="#008CAE"/>
<mask id="mask0" mask-type="alpha" maskUnits="userSpaceOnUse" x="97" y="117" width="217" height="17">
<path fill-rule="evenodd" clip-rule="evenodd" d="M97.7432 117.999H313.035V133.248H97.7432V117.999Z" fill="white"/>
</mask>
<g mask="url(#mask0)">
<path fill-rule="evenodd" clip-rule="evenodd" d="M311.601 130.007C298.649 131.327 286.25 127.028 276.536 118.434C275.978 117.94 274.949 117.773 274.414 118.434C270.534 123.229 264.613 125.881 258.513 126.285C251.466 126.753 244.58 124.446 238.451 121.137C238.006 120.897 237.375 120.827 236.936 121.137C224.252 130.087 205.873 129.927 193.526 120.373C192.858 119.856 192.072 119.774 191.405 120.373C185.584 125.608 177.998 128.767 170.215 129.464C166.383 129.808 162.502 129.609 158.744 128.774C155.542 128.064 152.174 127.111 149.672 124.912C149.017 124.337 148.213 124.37 147.55 124.912C146.109 126.091 144.66 127.185 142.925 127.899C140.579 128.862 138.015 129.339 135.491 129.49C130.837 129.769 125.182 129.182 121.505 126.004C121.008 125.575 120.279 125.403 119.687 125.77C113.747 129.458 106.005 130.711 99.1682 129.822C97.2592 129.574 97.2772 132.576 99.1682 132.822C106.154 133.731 114.101 132.422 120.329 128.871C124.579 131.976 130.361 132.798 135.491 132.49C138.34 132.32 141.211 131.809 143.864 130.735C145.632 130.019 147.136 129.016 148.607 127.877C153.057 131.161 159.241 132.289 164.619 132.57C171.291 132.918 178.021 131.575 184.077 128.766C187.138 127.346 189.967 125.488 192.543 123.317C202.843 130.688 216.545 132.665 228.583 128.676C231.838 127.597 234.931 126.079 237.774 124.167C244.246 127.535 251.541 129.854 258.902 129.257C265.161 128.75 271.349 126.234 275.639 121.588C285.726 129.994 298.4 134.353 311.601 133.007C313.503 132.814 313.523 129.812 311.601 130.007Z" fill="#008CAE"/>
</g>
<path fill-rule="evenodd" clip-rule="evenodd" d="M275.563 144.952C269.887 147.097 263.329 145.724 259.069 141.374C258.375 140.664 257.22 140.871 256.713 141.678C255.233 144.033 252.541 145.625 250.004 146.609C246.747 147.873 243.173 148.358 239.727 147.67C237.842 147.293 237.035 150.183 238.93 150.562C245.371 151.85 253.78 149.929 258.216 144.654C263.167 148.805 270.266 150.148 276.36 147.845C278.149 147.169 277.374 144.267 275.563 144.952Z" fill="#008CAE"/>
<path fill-rule="evenodd" clip-rule="evenodd" d="M291.903 61.6095L287.711 42.7295L283.877 25.4405C283.484 23.6665 281.827 22.1555 279.728 21.8495C276.563 21.3895 272.743 22.3535 268.984 25.5465C257.463 35.3285 244.907 31.6335 244.907 31.6335L247.549 48.6915C247.548 48.6915 247.548 48.6915 247.547 48.6915L250.334 66.7005C250.334 66.7005 252.157 67.2345 255.047 67.3575C259.748 67.5585 267.278 66.6715 274.413 60.6115C281.854 54.2945 289.528 56.7025 291.899 61.6105L291.895 61.5955C291.898 61.6005 291.901 61.6045 291.903 61.6095Z" fill="#2950A6"/>
<path fill-rule="evenodd" clip-rule="evenodd" d="M282.688 73.3483C282.051 70.6193 284.817 74.8853 287.465 73.5803C295.529 69.6033 291.904 61.6093 291.904 61.6093C289.955 57.5863 284.447 55.2413 278.422 58.0203" fill="#102041"/>
<path fill-rule="evenodd" clip-rule="evenodd" d="M283.605 76.65C283.765 77.224 284.557 77.232 284.745 76.666C285.173 75.375 286.06 74.272 287.464 73.581C295.527 69.603 291.903 61.609 291.903 61.609C290.71 59.147 288.188 57.311 285.023 56.894C284.362 57.809 283.414 58.684 282.085 59.208C280.737 59.736 279.852 60.433 279.277 61.094L283.605 76.65Z" fill="#102041"/>
<path fill-rule="evenodd" clip-rule="evenodd" d="M255.843 111.116C255.487 107.531 249.149 44.4293 247.569 28.6883C247.191 24.9363 241.353 25.3953 241.731 29.1473C242.157 33.4503 242.594 37.7473 243.021 42.0503C244.008 51.9103 249.633 107.876 250.003 111.582C250.383 115.327 256.219 114.876 255.843 111.116Z" fill="#E7E7E7"/>
<path fill-rule="evenodd" clip-rule="evenodd" d="M252.446 66.8017C251.427 56.6577 250.408 46.5147 249.389 36.3717C249.246 34.9497 249.103 33.5287 248.961 32.1067C248.827 30.7787 246.732 30.7647 246.866 32.1067C247.885 42.2497 248.904 52.3937 249.924 62.5367C250.066 63.9587 250.209 65.3797 250.352 66.8017C250.486 68.1297 252.581 68.1437 252.446 66.8017Z" fill="black"/>
<path fill-rule="evenodd" clip-rule="evenodd" d="M276.434 30.5528C270.539 31.0518 266.407 36.2598 267.205 42.1848C268.001 48.1108 273.426 52.5098 279.321 52.0108C283.645 51.6448 287.013 48.7408 288.189 44.8818L287.711 42.7288L285.886 34.4968C283.583 31.8288 280.1 30.2418 276.434 30.5528Z" fill="white"/>
<path d="M273.194 37.5979C273.127 37.1944 273.406 36.8673 273.817 36.8673H275.216L276.466 44.3637H281.825L281.552 42.7271H277.92L276.943 36.8673L276.548 34.5L277.895 36.8673H281.974C282.385 36.8673 282.772 37.1944 282.84 37.5979L284.175 45.6058C284.243 46.0093 283.964 46.3365 283.553 46.3365H275.396C274.985 46.3365 274.598 46.0093 274.53 45.6058L273.194 37.5979Z" fill="#2950A6"/>
<path fill-rule="evenodd" clip-rule="evenodd" d="M225.144 25.2536C222.83 23.8776 220.515 22.5016 218.201 21.1266C217.525 20.7246 216.525 20.9516 216.148 21.6646C215.766 22.3876 215.966 23.2886 216.686 23.7166C219.001 25.0926 221.315 26.4676 223.63 27.8436C224.305 28.2456 225.306 28.0186 225.682 27.3056C226.064 26.5826 225.865 25.6816 225.144 25.2536Z" fill="white"/>
<path fill-rule="evenodd" clip-rule="evenodd" d="M300.648 44.9292C302.908 44.7162 305.141 44.2942 307.309 43.6172C308.057 43.3842 308.612 42.5612 308.357 41.7722C308.114 41.0202 307.314 40.4742 306.512 40.7242C305.512 41.0362 304.498 41.3002 303.472 41.5082C302.969 41.6102 302.463 41.7002 301.955 41.7762C301.874 41.7882 301.429 41.8542 301.826 41.7972C301.709 41.8142 301.59 41.8272 301.473 41.8422C301.198 41.8752 300.923 41.9032 300.648 41.9292C299.869 42.0032 299.109 42.5672 299.148 43.4292C299.182 44.1792 299.812 45.0082 300.648 44.9292Z" fill="white"/>
<path fill-rule="evenodd" clip-rule="evenodd" d="M288.939 15.1803C289.67 13.5363 290.402 11.8923 291.134 10.2473C291.304 9.86729 291.4 9.51029 291.286 9.09229C291.189 8.74429 290.92 8.36729 290.596 8.19529C290.248 8.01229 289.826 7.91929 289.44 8.04429C289.092 8.15729 288.699 8.38529 288.544 8.73329C287.812 10.3783 287.08 12.0223 286.349 13.6663C286.179 14.0473 286.082 14.4043 286.197 14.8223C286.293 15.1703 286.562 15.5473 286.887 15.7183C287.235 15.9023 287.656 15.9943 288.043 15.8693C288.39 15.7573 288.784 15.5293 288.939 15.1803Z" fill="white"/>
<path fill-rule="evenodd" clip-rule="evenodd" d="M252.626 13.5259C252.562 10.9939 252.253 8.46392 251.72 5.98893C251.554 5.22093 250.615 4.70193 249.875 4.94193C249.065 5.20293 248.649 5.96393 248.827 6.78593C248.954 7.37293 249.068 7.96193 249.168 8.55393C249.213 8.82693 249.256 9.09993 249.296 9.37493C249.309 9.46292 249.354 9.79593 249.318 9.52493C249.339 9.68493 249.359 9.84493 249.378 10.0049C249.515 11.1739 249.596 12.3489 249.626 13.5259C249.646 14.3099 250.302 15.0629 251.126 15.0259C251.921 14.9899 252.647 14.3659 252.626 13.5259Z" fill="white"/>
<path fill-rule="evenodd" clip-rule="evenodd" d="M219.323 53.8219C216.576 53.8939 213.828 53.7959 211.094 53.5269C210.31 53.4489 209.56 54.2719 209.594 55.0269C209.633 55.9049 210.254 56.4439 211.094 56.5269C213.828 56.7959 216.576 56.8939 219.323 56.8219C220.107 56.8009 220.86 56.1469 220.823 55.3219C220.787 54.5269 220.163 53.7999 219.323 53.8219Z" fill="white"/>
<path fill-rule="evenodd" clip-rule="evenodd" d="M141.42 167.298C140.686 166.845 139.909 166.423 139.077 166.024C135.384 164.285 130.299 162.968 124.868 161.996C110.724 159.438 94.2787 159.113 94.2787 159.113L94.2897 159.07C94.2917 159.063 94.2967 159.046 94.3007 159.035L55.1797 179.13C57.4907 179.164 59.7867 179.2 62.0707 179.239H62.0817C93.2957 179.747 121.856 180.449 151.364 180.373C150.188 176.357 147.51 171.001 141.42 167.298Z" fill="black"/>
<path fill-rule="evenodd" clip-rule="evenodd" d="M97.2568 97.6408L109.122 112.469L112.022 101.383L151.363 66.5578L127.336 38.7598C127.336 38.7598 107.59 53.2728 105.449 54.1288C105.449 54.1288 126.897 84.0138 97.2568 97.6408Z" fill="#004656"/>
<path fill-rule="evenodd" clip-rule="evenodd" d="M33.5543 64.4966C33.7703 65.0256 33.9973 65.5336 34.2133 66.0086C33.9973 65.5336 33.7703 65.0366 33.5543 64.4966Z" fill="#006880"/>
<path fill-rule="evenodd" clip-rule="evenodd" d="M101.253 98.5519L100.357 96.4569L99.9362 96.4679L83.4922 97.0729L68.7642 97.6119L54.9982 86.1559L54.7932 85.9839L54.5772 85.7999L52.2012 83.8239L44.4812 77.3889L37.4522 71.5369H37.4412C26.4392 68.5889 11.7872 72.0769 0.806172 79.5589C0.590172 96.7699 0.310172 113.916 0.223172 129.983C0.223172 131.008 0.212172 132.034 0.212172 133.049V134.258C0.201172 135.964 0.201172 137.659 0.201172 139.333C0.201172 146.912 0.396172 154.838 3.95917 161.543C6.11817 165.603 9.37917 168.907 13.2122 171.455C16.3982 173.582 19.9822 175.201 23.6532 176.303C25.5862 176.886 27.5402 177.328 29.5162 177.674C31.2002 177.988 32.9062 178.214 34.6122 178.387C39.2772 178.872 44.0062 178.97 48.6922 179.034C53.2162 179.1 57.6652 179.164 62.0702 179.24H62.0812C75.5242 174.889 84.9922 167.806 90.0352 163.303C91.2292 162.246 92.1592 161.344 92.8522 160.641V160.644L96.1072 158.062L109.122 112.469L109.523 104.874L101.253 98.5519Z" fill="#004656"/>
<path fill-rule="evenodd" clip-rule="evenodd" d="M97.2587 39.1452C97.2587 39.1452 82.2937 40.2032 54.8037 56.8312C54.8037 56.8312 42.8407 63.4822 37.4527 71.5372C37.4527 71.5372 37.4307 71.5152 37.3987 71.4722C37.3877 71.4502 37.3657 71.4292 37.3447 71.3962C36.9667 70.8892 35.6277 69.0422 34.2137 66.0082C33.9977 65.5332 33.7707 65.0262 33.5547 64.4972C33.5327 64.4642 33.5227 64.4212 33.5007 64.3782C33.4037 64.1512 33.3167 63.9142 33.2197 63.6652C33.1007 63.3852 32.9927 63.0932 32.8957 62.8022C32.7987 62.5322 32.7017 62.2622 32.6047 61.9812C32.5617 61.8732 32.5287 61.7652 32.4967 61.6572C32.3347 61.1712 32.1727 60.6752 32.0217 60.1452C31.9997 60.0812 31.9887 60.0162 31.9667 59.9512C31.8807 59.6602 31.8057 59.3572 31.7187 59.0442C31.5357 58.3322 31.3627 57.5862 31.2007 56.8202C30.2937 52.3502 29.9267 46.9622 30.8557 40.8082C33.7167 21.8152 62.7077 10.8672 77.5427 16.8162C82.6607 18.8782 86.5907 22.1712 89.5497 25.6052C89.7657 25.8642 89.9817 26.1122 90.1867 26.3722C90.5207 26.7712 90.8447 27.1812 91.1367 27.5812C91.3307 27.8402 91.5257 28.1102 91.7087 28.3692C92.1627 28.9952 92.5727 29.6112 92.9507 30.2152C93.1337 30.4962 93.3067 30.7772 93.4687 31.0472C93.5767 31.2202 93.6847 31.3932 93.7707 31.5542C93.8577 31.6952 93.9437 31.8462 94.0197 31.9862C94.8727 33.4652 95.5307 34.8262 96.0277 35.9492C96.1137 36.1432 96.1897 36.3162 96.2647 36.4992C96.4487 36.9312 96.5997 37.3092 96.7297 37.6442C96.7837 37.7842 96.8377 37.9252 96.8807 38.0432C97.1397 38.7452 97.2587 39.1452 97.2587 39.1452Z" fill="#C0007A"/>
<path fill-rule="evenodd" clip-rule="evenodd" d="M96.2647 36.4997L95.3897 39.4037C90.5967 40.2357 76.6567 43.6037 54.8037 56.8307C54.8037 56.8307 51.5967 58.6127 47.7637 61.4527C50.3437 54.5417 60.4077 33.4977 89.3117 25.3347C90.5857 24.9677 91.8917 24.6337 93.2307 24.3317C93.2307 24.3317 111.565 18.9647 96.2647 36.4997Z" fill="#F10097"/>
<path fill-rule="evenodd" clip-rule="evenodd" d="M89.5597 25.605C89.7757 25.864 89.9917 26.112 90.1857 26.372C89.9807 26.112 89.7657 25.864 89.5487 25.605H89.5597Z" fill="#006880"/>
<path fill-rule="evenodd" clip-rule="evenodd" d="M54.8053 56.8335C54.8053 56.8335 42.8343 63.4785 37.4453 71.5405C37.4453 71.5405 43.9123 89.9195 56.8483 85.4545C69.7843 80.9885 62.3093 58.2425 54.8053 56.8335Z" fill="black"/>
<path fill-rule="evenodd" clip-rule="evenodd" d="M54.8056 56.8336C54.8056 56.8336 59.9676 67.1456 57.5156 69.7266C55.0636 72.3076 51.4506 65.9726 45.9006 69.5916C40.3516 73.2106 46.1586 84.3096 53.9026 83.9216C53.9026 83.9216 59.4086 101.861 73.4966 103.796C87.5846 105.733 91.7926 98.3756 91.7926 98.3756C91.7926 98.3756 106.062 96.5506 110.374 87.0746C114.686 77.5986 116.55 67.2916 99.2276 42.6986L97.2636 39.1406C97.2636 39.1406 82.2936 40.1986 54.8056 56.8336Z" fill="#DD7B6B"/>
<path fill-rule="evenodd" clip-rule="evenodd" d="M95.2859 40.297C98.1799 45.048 100.782 49.968 103.293 54.931C106.036 60.35 109.588 66.143 110.802 72.127C112.052 78.289 109.43 87.21 104.524 91.288C99.1219 95.778 91.7259 97.193 84.8979 96.707C81.9559 96.497 81.9689 101.08 84.8979 101.288C92.2529 101.813 99.7249 100.176 105.88 95.993C111.399 92.242 113.986 86.043 115.261 79.644C116.78 72.022 113.456 65.291 110.213 58.602C106.818 51.601 103.292 44.633 99.2429 37.984C97.7109 35.47 93.7459 37.77 95.2859 40.297Z" fill="black"/>
<path fill-rule="evenodd" clip-rule="evenodd" d="M111.048 18.7995C111.048 18.7995 108.957 32.4905 110.492 32.0015C111.006 31.8385 136.216 33.3245 136.216 33.3245L127.806 39.3025L147.948 62.9555C147.948 62.9555 159.826 51.8975 165.818 40.7945C169.745 33.5155 172.091 25.9885 168.292 21.2325C159.564 10.3095 111.048 18.7995 111.048 18.7995Z" fill="#DD7B6B"/>
<path fill-rule="evenodd" clip-rule="evenodd" d="M71.0866 54.5932C71.0866 54.5932 62.1796 56.7672 62.0726 60.1702C61.9656 63.5732 68.3966 62.2872 73.4346 60.3212C78.4726 58.3552 77.6336 52.3242 71.0866 54.5932Z" fill="white"/>
<path fill-rule="evenodd" clip-rule="evenodd" d="M95.8554 47.7588C95.8554 47.7588 88.4524 49.5658 88.3624 52.3948C88.2734 55.2238 93.6194 54.1538 97.8074 52.5198C101.995 50.8858 101.298 45.8728 95.8554 47.7588Z" fill="white"/>
<path fill-rule="evenodd" clip-rule="evenodd" d="M74.1348 59.8169C77.0828 59.8169 77.0878 55.2349 74.1348 55.2349C71.1868 55.2349 71.1818 59.8169 74.1348 59.8169Z" fill="black"/>
<path fill-rule="evenodd" clip-rule="evenodd" d="M97.4912 52.7497C100.439 52.7497 100.444 48.1677 97.4912 48.1677C94.5432 48.1677 94.5382 52.7497 97.4912 52.7497Z" fill="black"/>
<path fill-rule="evenodd" clip-rule="evenodd" d="M51.1709 74.0318C51.2709 74.0328 51.3689 74.0388 51.4689 74.0438C51.6509 74.0548 51.4419 74.0328 51.5479 74.0538C51.7279 74.0888 51.9039 74.1308 52.0779 74.1878C52.1099 74.1988 52.3699 74.2988 52.2099 74.2308C52.2859 74.2628 52.3609 74.3008 52.4339 74.3398C52.5969 74.4238 52.7509 74.5208 52.9019 74.6238C52.9289 74.6428 52.9569 74.6628 52.9829 74.6818C52.9259 74.6368 52.9229 74.6368 52.9769 74.6798C53.0399 74.7338 53.1029 74.7888 53.1629 74.8458C53.2349 74.9138 53.3049 74.9858 53.3719 75.0588C53.3869 75.0748 53.5449 75.2608 53.4859 75.1858C53.4269 75.1118 53.5709 75.3068 53.5829 75.3258C53.6379 75.4078 53.6899 75.4928 53.7389 75.5798C53.7789 75.6528 53.8169 75.7258 53.8519 75.8018C53.8809 75.8648 53.8799 75.8608 53.8499 75.7908C53.8679 75.8368 53.8849 75.8838 53.9009 75.9308C53.9609 76.1048 54.0029 76.2818 54.0389 76.4608C54.0749 76.6398 54.0419 76.4308 54.0479 76.5398C54.0539 76.6218 54.0609 76.7048 54.0629 76.7878C54.0649 76.8868 54.0639 76.9868 54.0579 77.0858C54.0569 77.1088 54.0349 77.3638 54.0479 77.2508C54.0619 77.1378 54.0239 77.3898 54.0189 77.4128C53.9999 77.5108 53.9769 77.6078 53.9499 77.7038C53.9279 77.7838 53.9029 77.8628 53.8759 77.9418C53.8589 77.9908 53.7969 78.1548 53.8499 78.0278C53.7739 78.2108 53.6749 78.3868 53.5689 78.5538C53.5249 78.6248 53.4789 78.6928 53.4299 78.7598C53.3899 78.8158 53.3909 78.8138 53.4339 78.7538C53.4129 78.7788 53.3909 78.8038 53.3699 78.8298C53.2319 78.9758 53.0949 79.1148 52.9409 79.2448C52.5279 79.5928 52.5819 80.2998 52.9409 80.6588C53.3499 81.0678 53.9409 81.0078 54.3559 80.6588C55.8389 79.4078 56.4809 77.1368 55.7959 75.3058C55.0779 73.3858 53.2299 72.0578 51.1709 72.0318C50.6299 72.0248 50.1709 72.4968 50.1709 73.0318C50.1709 73.5798 50.6289 74.0248 51.1709 74.0318Z" fill="black"/>
<path fill-rule="evenodd" clip-rule="evenodd" d="M93.1338 65.5597C92.9228 63.9347 91.4928 62.6077 90.5178 61.3847C89.3368 59.9027 88.1548 58.4207 86.9738 56.9387C86.6338 56.5137 85.9148 56.5917 85.5598 56.9387C85.1378 57.3517 85.2248 57.9337 85.5598 58.3527C87.2508 60.4747 89.0898 62.5397 90.6498 64.7577C91.1828 65.5167 91.4178 66.3847 90.6178 67.0637C89.7638 67.7887 88.7748 67.1407 87.9738 66.6557C87.1458 66.1537 86.0388 67.1797 86.6058 68.0237C87.1348 68.8127 87.7368 69.9087 86.4468 70.2887C85.3958 70.5977 84.4458 69.6527 83.8488 68.9167C83.5058 68.4937 82.7918 68.5667 82.4348 68.9167C82.0148 69.3267 82.0958 69.9137 82.4348 70.3307C83.6658 71.8487 85.6548 72.9057 87.5678 71.9867C88.3698 71.6007 89.0178 70.8717 89.2128 69.9917C89.2628 69.7677 89.2728 69.5467 89.2628 69.3297C89.9138 69.4357 90.5788 69.3827 91.2438 69.0387C92.4918 68.3937 93.3178 66.9657 93.1338 65.5597Z" fill="black"/>
<path fill-rule="evenodd" clip-rule="evenodd" d="M71.3669 48.5552C68.5219 48.2002 65.5569 48.5482 62.8659 49.5342C61.9479 49.8702 61.2259 50.8222 61.5559 51.8402C61.8479 52.7422 62.8769 53.5112 63.8629 53.1502C64.5109 52.9122 65.1709 52.7102 65.8429 52.5522C66.1309 52.4842 66.4209 52.4242 66.7119 52.3712C66.9009 52.3372 67.1029 52.2852 67.2959 52.2762C67.2269 52.2852 67.1589 52.2942 67.0899 52.3032C67.1879 52.2902 67.2859 52.2792 67.3839 52.2682C68.7089 52.1242 70.0449 52.1402 71.3669 52.3052C71.8089 52.3612 72.3929 52.0562 72.6929 51.7562C73.0179 51.4312 73.2629 50.8972 73.2419 50.4302C73.2209 49.9452 73.0609 49.4422 72.6929 49.1042C72.3019 48.7452 71.8899 48.6202 71.3669 48.5552Z" fill="black"/>
<path fill-rule="evenodd" clip-rule="evenodd" d="M96.7745 82.4748C96.7035 82.5868 96.6295 82.6968 96.5525 82.8048C96.5365 82.8268 96.5085 82.8878 96.4825 82.8988C96.5065 82.8888 96.5705 82.7888 96.5075 82.8668C96.4635 82.9218 96.4195 82.9758 96.3735 83.0288C96.2865 83.1288 96.1945 83.2248 96.0995 83.3158C96.0485 83.3638 95.9965 83.4108 95.9425 83.4558C95.9195 83.4758 95.8945 83.4948 95.8715 83.5148C95.8015 83.5748 96.0125 83.4138 95.8845 83.5038C95.7755 83.5798 95.6655 83.6528 95.5475 83.7168C95.4855 83.7498 95.4225 83.7808 95.3585 83.8098C95.2715 83.8518 95.3655 83.7968 95.3985 83.7938C95.3715 83.7958 95.3365 83.8178 95.3115 83.8268C95.1775 83.8738 95.0435 83.9048 94.9055 83.9328C94.8095 83.9538 94.9205 83.9248 94.9555 83.9278C94.9265 83.9258 94.8925 83.9338 94.8625 83.9358C94.7855 83.9418 94.7085 83.9428 94.6295 83.9408C94.2595 83.9308 93.9055 84.2728 93.9225 84.6478C93.9405 85.0388 94.2335 85.3448 94.6295 85.3548C96.0995 85.3928 97.2545 84.3588 97.9955 83.1888C98.1935 82.8758 98.0715 82.3948 97.7415 82.2208C97.3935 82.0368 96.9855 82.1408 96.7745 82.4748Z" fill="black"/>
<path fill-rule="evenodd" clip-rule="evenodd" d="M96.9283 74.549C94.1193 74.501 90.2933 76.469 90.8373 79.789C91.0723 81.223 92.3413 82.271 93.8033 82.175C95.3023 82.078 96.4943 80.935 96.7263 79.457C96.9263 78.191 96.4473 76.983 95.5783 76.111C96.0263 76.017 96.4803 75.956 96.9283 75.964C97.8393 75.979 97.8393 74.565 96.9283 74.549Z" fill="black"/>
<path fill-rule="evenodd" clip-rule="evenodd" d="M2.55848 129.185C5.13648 127.076 7.64948 124.889 10.0935 122.625C10.6705 122.091 10.6745 121.039 10.0935 120.504C9.47548 119.938 8.58748 119.934 7.97248 120.504C5.52848 122.767 3.01548 124.955 0.437484 127.064C-0.172516 127.562 -0.118516 128.674 0.437484 129.185C1.08548 129.78 1.90848 129.717 2.55848 129.185Z" fill="black"/>
<path fill-rule="evenodd" clip-rule="evenodd" d="M107.546 19.0249L134.882 16.0129L132.619 28.8249L115.434 31.0929C115.434 31.0929 115.434 36.2179 108.395 40.1009C99.9988 44.7319 99.9188 41.1789 95.8628 44.3769C93.0118 46.6239 90.6058 47.0309 88.9248 44.3799C88.3278 43.4389 88.0288 41.5559 91.4378 39.1409C92.9988 38.0349 95.5868 37.7659 95.5868 37.7659C95.5868 37.7659 94.2368 37.7539 88.2048 39.2729C77.5878 41.9439 77.4118 42.9949 74.6158 41.5349C71.9698 40.1529 72.2538 37.9979 72.2538 37.9979C72.2538 37.9979 69.8348 38.5429 68.1778 36.1359C66.6958 33.9829 68.7338 31.9269 68.7338 31.9269C68.7338 31.9269 67.5498 31.1559 68.1388 29.1639C68.9008 26.5839 71.6768 26.1679 71.6768 26.1679C71.6768 26.1679 71.6418 23.5279 75.5078 22.7849C82.9218 21.3579 86.4428 19.6079 88.9248 18.7389C91.2518 17.9249 95.9218 17.0509 103.026 18.0619C106.373 18.5379 107.546 19.0249 107.546 19.0249Z" fill="#DD7B6B"/>
<path fill-rule="evenodd" clip-rule="evenodd" d="M104.025 27.751C99.5824 29.716 94.0914 29.023 90.2774 26.012C89.5254 25.418 88.4524 26.477 89.2124 27.077C93.6104 30.549 99.6594 31.317 104.785 29.051C105.669 28.66 104.904 27.362 104.025 27.751Z" fill="black"/>
<path fill-rule="evenodd" clip-rule="evenodd" d="M86.2865 25.5959C83.2995 26.4639 80.3325 27.5219 77.2375 27.9459C75.5475 28.1779 72.9005 28.3449 72.7065 26.0639C72.6255 25.1059 71.1195 25.0969 71.2025 26.0639C71.3065 27.2889 71.8075 28.4019 72.9305 29.0059C73.9275 29.5419 75.1195 29.6269 76.2285 29.5569C79.8155 29.3319 83.2655 28.0409 86.6865 27.0469C87.6145 26.7779 87.2205 25.3249 86.2865 25.5959Z" fill="black"/>
<path fill-rule="evenodd" clip-rule="evenodd" d="M91.9705 33.6593C90.5955 32.5843 89.6395 31.0553 88.8655 29.5143C88.0765 27.9423 87.4695 26.2563 87.1385 24.5263C86.9565 23.5753 85.5055 23.9773 85.6865 24.9263C86.0415 26.7823 86.7205 28.5883 87.5655 30.2743C88.3885 31.9143 89.4435 33.5793 90.9065 34.7233C91.2255 34.9743 91.6585 35.0353 91.9705 34.7233C92.2305 34.4633 92.2925 33.9113 91.9705 33.6593Z" fill="black"/>
<path fill-rule="evenodd" clip-rule="evenodd" d="M91.0923 33.5717C85.0743 35.2647 79.1532 37.3547 72.8213 37.3857C71.8523 37.3907 71.8503 38.8967 72.8213 38.8917C79.2893 38.8597 85.3453 36.7527 91.4923 35.0237C92.4233 34.7617 92.0283 33.3087 91.0923 33.5717Z" fill="black"/>
<path fill-rule="evenodd" clip-rule="evenodd" d="M87.0397 29.7121C83.7917 30.5871 80.5067 31.3101 77.1907 31.8751C75.7717 32.1171 74.3457 32.2791 72.9047 32.2531C71.7317 32.2311 70.3117 32.1391 69.4497 31.2411C68.7777 30.5411 67.7147 31.6061 68.3857 32.3051C70.2707 34.2691 73.8437 33.8681 76.2707 33.5321C80.0357 33.0101 83.7727 32.1511 87.4397 31.1641C88.3737 30.9121 87.9777 29.4591 87.0397 29.7121Z" fill="black"/>
<path fill-rule="evenodd" clip-rule="evenodd" d="M87.1967 47.9992C87.3977 47.6152 87.6187 47.2452 87.8707 46.8932C87.8947 46.8592 88.0947 46.6002 87.9527 46.7772C87.8097 46.9562 88.0207 46.7012 88.0457 46.6702C88.1777 46.5162 88.3147 46.3652 88.4557 46.2192C88.6147 46.0542 88.7797 45.8952 88.9517 45.7442C89.0487 45.6582 89.4727 45.3322 89.1627 45.5552C89.5147 45.3022 89.8717 45.0632 90.2527 44.8552C90.4397 44.7542 90.6337 44.6672 90.8227 44.5722C91.0787 44.4442 90.5747 44.6512 90.8467 44.5632C90.9547 44.5282 91.0597 44.4832 91.1677 44.4472C91.6257 44.2902 92.0937 44.1782 92.5697 44.0882C92.7427 44.0552 92.7647 44.0632 92.5777 44.0822C92.6907 44.0712 92.8037 44.0582 92.9167 44.0492C93.1437 44.0322 93.3707 44.0222 93.5977 44.0212C93.8537 44.0202 94.1097 44.0312 94.3647 44.0522C94.4017 44.0552 94.7557 44.0902 94.5387 44.0642C94.2977 44.0362 94.8007 44.1112 94.7947 44.1102C95.7567 44.2832 96.8627 43.8492 97.1017 42.8002C97.3097 41.8852 96.8237 40.6792 95.7917 40.4942C93.2857 40.0442 90.7637 40.3622 88.4947 41.5462C86.5787 42.5452 84.9597 44.1952 83.9587 46.1062C83.5037 46.9752 83.7077 48.1842 84.6317 48.6712C85.4957 49.1282 86.7107 48.9272 87.1967 47.9992Z" fill="black"/>
</svg>
