<svg height="58" viewBox="0 0 9 58" width="9" xmlns="http://www.w3.org/2000/svg"><g fill="#595959" fill-rule="evenodd" opacity=".5"><path d="m.200001.469422h8.4v1.814876h-8.4z"/><path d="m.200001 7.123968h8.4v1.209917h-8.4z"/><path d="m.200001 3.494216h8.4v1h-8.4z"/><path d="m.200001 5.309092h8.4v1h-8.4z"/><path d="m.200001 9.543803h8.4v1.814876h-8.4z"/><path d="m.200001 16.198348h8.4v1.209917h-8.4z"/><path d="m.200001 12.568596h8.4v1h-8.4z"/><path d="m.200001 14.383472h8.4v1h-8.4z"/><path d="m.200001 18.618183h8.4v1h-8.4z"/><path d="m.200001 20.433059h8.4v1h-8.4z"/><path d="m.200001 22.247935h8.4v1.814876h-8.4z"/><path d="m.200001 28.902481h8.4v1.209917h-8.4z"/><path d="m.200001 25.272729h8.4v1h-8.4z"/><path d="m.200001 27.087605h8.4v1h-8.4z"/><path d="m.200001 31.322316h8.4v1.814876h-8.4z"/><path d="m.200001 37.976862h8.4v1.209917h-8.4z"/><path d="m.200001 34.347109h8.4v1h-8.4z"/><path d="m.200001 36.161985h8.4v1h-8.4z"/><path d="m.200001 40.396696h8.4v1h-8.4z"/><path d="m.200001 42.211572h8.4v1h-8.4z"/><path d="m.200001 44.026449h8.4v1h-8.4z"/><path d="m.200001 45.841325h8.4v1.814876h-8.4z"/><path d="m.200001 52.49587h8.4v1.209917h-8.4z"/><path d="m.200001 48.866118h8.4v1h-8.4z"/><path d="m.200001 50.680994h8.4v1h-8.4z"/><path d="m.200001 54.915705h8.4v1h-8.4z"/><path d="m.200001 56.730581h8.4v1h-8.4z"/></g></svg>